<svg width="120" height="120" viewBox="0 0 120 120" fill="none" xmlns="http://www.w3.org/2000/svg">
<rect width="120" height="120" fill="#F9DCC4"/>
<rect x="10" y="10" width="100" height="100" rx="10" fill="#F8EDEB"/>
<mask id="path-3-outside-1_14_6" maskUnits="userSpaceOnUse" x="20" y="22" width="85" height="75" fill="black">
<rect fill="white" x="20" y="22" width="85" height="75"/>
<path d="M42.8809 79.3701C44.6354 87.6416 47.1777 91.7773 50.5078 91.7773C51.7969 91.7773 53.0322 91.3118 54.2139 90.3809C55.3955 89.4141 56.4876 88.2503 57.4902 86.8896C58.5286 85.4932 59.4417 84.0251 60.2295 82.4854C61.0173 80.9456 61.6618 79.6029 62.1631 78.457C62.5212 77.5977 63.1478 77.168 64.043 77.168C64.6159 77.168 65.0993 77.3828 65.4932 77.8125C65.887 78.2422 66.084 78.7077 66.084 79.209C66.084 79.4954 66.0303 79.7461 65.9229 79.9609C65.6722 80.5697 65.2962 81.3932 64.7949 82.4316C64.3294 83.4342 63.7386 84.5264 63.0225 85.708C62.3421 86.8538 61.5723 88.0355 60.7129 89.2529C59.8535 90.4704 58.9046 91.5625 57.8662 92.5293C56.8278 93.4961 55.7178 94.3018 54.5361 94.9463C53.3903 95.555 52.1729 95.8594 50.8838 95.8594C48.4847 95.8594 46.4258 95.0358 44.707 93.3887C42.9883 91.7057 41.5023 88.9486 40.249 85.1172C38.5303 88.7695 36.7936 91.4193 35.0391 93.0664C33.2845 94.7135 31.3867 95.5371 29.3457 95.5371C28.2715 95.5371 27.2331 95.3581 26.2305 95C25.2279 94.6777 24.3506 94.1227 23.5986 93.335C22.8467 92.5472 22.238 91.5446 21.7725 90.3271C21.307 89.0739 21.0742 87.5521 21.0742 85.7617C21.0742 83.291 21.5039 81.0173 22.3633 78.9404C23.2227 76.8636 24.3327 75.0911 25.6934 73.623C27.054 72.1191 28.5579 70.9554 30.2051 70.1318C31.888 69.3083 33.5531 68.8965 35.2002 68.8965C35.7373 68.8965 36.2028 69.0934 36.5967 69.4873C36.9906 69.8454 37.1875 70.3109 37.1875 70.8838C37.1875 71.3851 37.0264 71.8327 36.7041 72.2266C36.3818 72.6204 35.9521 72.8532 35.415 72.9248C34.3408 73.068 33.195 73.4082 31.9775 73.9453C30.7601 74.4824 29.6322 75.2702 28.5938 76.3086C27.5911 77.3112 26.7497 78.6003 26.0693 80.1758C25.4248 81.7513 25.1025 83.6312 25.1025 85.8154C25.1025 87.6058 25.4606 89.0023 26.1768 90.0049C26.9287 91.0075 28.0029 91.5088 29.3994 91.5088C29.9723 91.5088 30.5811 91.3656 31.2256 91.0791C31.8701 90.7568 32.5505 90.1481 33.2666 89.2529C34.0186 88.3577 34.8242 87.0866 35.6836 85.4395C36.5788 83.7923 37.5635 81.626 38.6377 78.9404C38.029 75.7894 37.474 72.1549 36.9727 68.0371C36.4714 63.9193 36.2207 59.318 36.2207 54.2334C36.2207 52.0133 36.2923 49.7038 36.4355 47.3047C36.5788 44.8698 36.8115 42.5065 37.1338 40.2148C37.4561 37.8874 37.8857 35.6852 38.4229 33.6084C38.96 31.5316 39.6045 29.7054 40.3564 28.1299C41.1442 26.5544 42.0573 25.319 43.0957 24.4238C44.1341 23.4928 45.3158 23.0273 46.6406 23.0273C47.8223 23.0273 48.8249 23.3496 49.6484 23.9941C50.472 24.6387 51.1344 25.5339 51.6357 26.6797C52.1729 27.8255 52.5667 29.2041 52.8174 30.8154C53.068 32.4268 53.1934 34.1992 53.1934 36.1328C53.1934 40.2865 52.8353 44.4401 52.1191 48.5938C51.403 52.7474 50.5078 56.722 49.4336 60.5176C48.3952 64.3132 47.2852 67.8223 46.1035 71.0449C44.9219 74.2676 43.8477 77.0426 42.8809 79.3701ZM49.165 36.0791C49.165 35.1839 49.1292 34.2171 49.0576 33.1787C49.0218 32.1403 48.8965 31.1735 48.6816 30.2783C48.5026 29.3473 48.252 28.5775 47.9297 27.9688C47.6074 27.36 47.1777 27.0557 46.6406 27.0557C45.7454 27.0557 44.904 27.8434 44.1162 29.4189C43.3643 30.9945 42.7018 33.0713 42.1289 35.6494C41.556 38.1917 41.0905 41.0921 40.7324 44.3506C40.4102 47.5732 40.249 50.8317 40.249 54.126C40.249 57.277 40.3743 60.4281 40.625 63.5791C40.8757 66.7301 41.1621 69.541 41.4844 72.0117C42.5228 69.2546 43.5075 66.4258 44.4385 63.5254C45.3695 60.5892 46.1751 57.5993 46.8555 54.5557C47.5716 51.512 48.1266 48.4505 48.5205 45.3711C48.9502 42.2559 49.165 39.1585 49.165 36.0791ZM103.735 80.0146C103.592 80.3011 103.288 80.9098 102.822 81.8408C102.393 82.736 101.82 83.7744 101.104 84.9561C100.423 86.1377 99.6175 87.373 98.6865 88.6621C97.7555 89.9512 96.7171 91.1328 95.5713 92.207C94.4255 93.2812 93.1901 94.1764 91.8652 94.8926C90.5404 95.5729 89.1439 95.9131 87.6758 95.9131C85.599 95.9131 83.8444 95.2507 82.4121 93.9258C81.0156 92.6009 79.9951 90.9359 79.3506 88.9307C78.1331 90.9717 76.6829 92.6009 75 93.8184C73.3171 95 71.6341 95.5908 69.9512 95.5908C68.6263 95.5908 67.4268 95.3581 66.3525 94.8926C65.2783 94.3913 64.3652 93.7109 63.6133 92.8516C62.8613 91.9564 62.2705 90.918 61.8408 89.7363C61.4469 88.5547 61.25 87.2656 61.25 85.8691C61.25 83.0762 61.7155 80.6234 62.6465 78.5107C63.6133 76.3623 64.8307 74.5719 66.2988 73.1396C67.7669 71.7074 69.3783 70.6331 71.1328 69.917C72.9232 69.2008 74.6419 68.8428 76.2891 68.8428C77.3991 68.8428 78.4196 69.0039 79.3506 69.3262C80.2816 69.6126 81.0693 69.9349 81.7139 70.293C82.3942 70.651 82.9134 70.9912 83.2715 71.3135C83.6296 71.5999 83.8265 71.7611 83.8623 71.7969C84.2562 72.2624 84.4531 72.7458 84.4531 73.2471C84.4531 73.7842 84.2562 74.2676 83.8623 74.6973C83.4684 75.0911 83.0029 75.2881 82.4658 75.2881C81.8929 75.2881 81.4095 75.0911 81.0156 74.6973C80.944 74.6257 80.7829 74.5003 80.5322 74.3213C80.2816 74.1064 79.9414 73.8916 79.5117 73.6768C79.082 73.4619 78.5628 73.2829 77.9541 73.1396C77.3812 72.9606 76.7188 72.8711 75.9668 72.8711C74.8568 72.8711 73.6751 73.1217 72.4219 73.623C71.1686 74.1243 70.0228 74.9121 68.9844 75.9863C67.946 77.0247 67.0687 78.3496 66.3525 79.9609C65.6722 81.5365 65.332 83.4163 65.332 85.6006C65.332 86.2809 65.4036 86.9792 65.5469 87.6953C65.6901 88.3757 65.9408 89.0023 66.2988 89.5752C66.6569 90.1481 67.1403 90.6136 67.749 90.9717C68.3577 91.3298 69.1097 91.5088 70.0049 91.5088C70.6494 91.5088 71.3835 91.2939 72.207 90.8643C73.0664 90.4346 73.8721 89.7721 74.624 88.877C75.4118 87.9818 76.11 86.8538 76.7188 85.4932C77.3633 84.1325 77.8109 82.5212 78.0615 80.6592C78.1331 80.1579 78.3659 79.7461 78.7598 79.4238C79.1536 79.0658 79.6191 78.8867 80.1562 78.8867C80.6576 78.8867 81.0872 79.0837 81.4453 79.4775C81.8392 79.8714 82.054 80.319 82.0898 80.8203C82.1257 81.5007 82.1973 82.4674 82.3047 83.7207C82.4121 84.9382 82.6449 86.1556 83.0029 87.373C83.3968 88.5905 83.9697 89.6468 84.7217 90.542C85.4736 91.4372 86.512 91.8848 87.8369 91.8848C88.6963 91.8848 89.5378 91.652 90.3613 91.1865C91.2207 90.721 92.0443 90.1123 92.832 89.3604C93.6556 88.5726 94.4255 87.6953 95.1416 86.7285C95.8936 85.7259 96.5739 84.7233 97.1826 83.7207C97.7913 82.7181 98.3285 81.7513 98.7939 80.8203C99.2594 79.8893 99.6533 79.0837 99.9756 78.4033C100.155 78.0094 100.405 77.7051 100.728 77.4902C101.086 77.2754 101.462 77.168 101.855 77.168C102.464 77.168 102.948 77.4007 103.306 77.8662C103.7 78.2959 103.896 78.7614 103.896 79.2627C103.896 79.5133 103.843 79.764 103.735 80.0146Z"/>
</mask>
<path d="M42.8809 79.3701C44.6354 87.6416 47.1777 91.7773 50.5078 91.7773C51.7969 91.7773 53.0322 91.3118 54.2139 90.3809C55.3955 89.4141 56.4876 88.2503 57.4902 86.8896C58.5286 85.4932 59.4417 84.0251 60.2295 82.4854C61.0173 80.9456 61.6618 79.6029 62.1631 78.457C62.5212 77.5977 63.1478 77.168 64.043 77.168C64.6159 77.168 65.0993 77.3828 65.4932 77.8125C65.887 78.2422 66.084 78.7077 66.084 79.209C66.084 79.4954 66.0303 79.7461 65.9229 79.9609C65.6722 80.5697 65.2962 81.3932 64.7949 82.4316C64.3294 83.4342 63.7386 84.5264 63.0225 85.708C62.3421 86.8538 61.5723 88.0355 60.7129 89.2529C59.8535 90.4704 58.9046 91.5625 57.8662 92.5293C56.8278 93.4961 55.7178 94.3018 54.5361 94.9463C53.3903 95.555 52.1729 95.8594 50.8838 95.8594C48.4847 95.8594 46.4258 95.0358 44.707 93.3887C42.9883 91.7057 41.5023 88.9486 40.249 85.1172C38.5303 88.7695 36.7936 91.4193 35.0391 93.0664C33.2845 94.7135 31.3867 95.5371 29.3457 95.5371C28.2715 95.5371 27.2331 95.3581 26.2305 95C25.2279 94.6777 24.3506 94.1227 23.5986 93.335C22.8467 92.5472 22.238 91.5446 21.7725 90.3271C21.307 89.0739 21.0742 87.5521 21.0742 85.7617C21.0742 83.291 21.5039 81.0173 22.3633 78.9404C23.2227 76.8636 24.3327 75.0911 25.6934 73.623C27.054 72.1191 28.5579 70.9554 30.2051 70.1318C31.888 69.3083 33.5531 68.8965 35.2002 68.8965C35.7373 68.8965 36.2028 69.0934 36.5967 69.4873C36.9906 69.8454 37.1875 70.3109 37.1875 70.8838C37.1875 71.3851 37.0264 71.8327 36.7041 72.2266C36.3818 72.6204 35.9521 72.8532 35.415 72.9248C34.3408 73.068 33.195 73.4082 31.9775 73.9453C30.7601 74.4824 29.6322 75.2702 28.5938 76.3086C27.5911 77.3112 26.7497 78.6003 26.0693 80.1758C25.4248 81.7513 25.1025 83.6312 25.1025 85.8154C25.1025 87.6058 25.4606 89.0023 26.1768 90.0049C26.9287 91.0075 28.0029 91.5088 29.3994 91.5088C29.9723 91.5088 30.5811 91.3656 31.2256 91.0791C31.8701 90.7568 32.5505 90.1481 33.2666 89.2529C34.0186 88.3577 34.8242 87.0866 35.6836 85.4395C36.5788 83.7923 37.5635 81.626 38.6377 78.9404C38.029 75.7894 37.474 72.1549 36.9727 68.0371C36.4714 63.9193 36.2207 59.318 36.2207 54.2334C36.2207 52.0133 36.2923 49.7038 36.4355 47.3047C36.5788 44.8698 36.8115 42.5065 37.1338 40.2148C37.4561 37.8874 37.8857 35.6852 38.4229 33.6084C38.96 31.5316 39.6045 29.7054 40.3564 28.1299C41.1442 26.5544 42.0573 25.319 43.0957 24.4238C44.1341 23.4928 45.3158 23.0273 46.6406 23.0273C47.8223 23.0273 48.8249 23.3496 49.6484 23.9941C50.472 24.6387 51.1344 25.5339 51.6357 26.6797C52.1729 27.8255 52.5667 29.2041 52.8174 30.8154C53.068 32.4268 53.1934 34.1992 53.1934 36.1328C53.1934 40.2865 52.8353 44.4401 52.1191 48.5938C51.403 52.7474 50.5078 56.722 49.4336 60.5176C48.3952 64.3132 47.2852 67.8223 46.1035 71.0449C44.9219 74.2676 43.8477 77.0426 42.8809 79.3701ZM49.165 36.0791C49.165 35.1839 49.1292 34.2171 49.0576 33.1787C49.0218 32.1403 48.8965 31.1735 48.6816 30.2783C48.5026 29.3473 48.252 28.5775 47.9297 27.9688C47.6074 27.36 47.1777 27.0557 46.6406 27.0557C45.7454 27.0557 44.904 27.8434 44.1162 29.4189C43.3643 30.9945 42.7018 33.0713 42.1289 35.6494C41.556 38.1917 41.0905 41.0921 40.7324 44.3506C40.4102 47.5732 40.249 50.8317 40.249 54.126C40.249 57.277 40.3743 60.4281 40.625 63.5791C40.8757 66.7301 41.1621 69.541 41.4844 72.0117C42.5228 69.2546 43.5075 66.4258 44.4385 63.5254C45.3695 60.5892 46.1751 57.5993 46.8555 54.5557C47.5716 51.512 48.1266 48.4505 48.5205 45.3711C48.9502 42.2559 49.165 39.1585 49.165 36.0791ZM103.735 80.0146C103.592 80.3011 103.288 80.9098 102.822 81.8408C102.393 82.736 101.82 83.7744 101.104 84.9561C100.423 86.1377 99.6175 87.373 98.6865 88.6621C97.7555 89.9512 96.7171 91.1328 95.5713 92.207C94.4255 93.2812 93.1901 94.1764 91.8652 94.8926C90.5404 95.5729 89.1439 95.9131 87.6758 95.9131C85.599 95.9131 83.8444 95.2507 82.4121 93.9258C81.0156 92.6009 79.9951 90.9359 79.3506 88.9307C78.1331 90.9717 76.6829 92.6009 75 93.8184C73.3171 95 71.6341 95.5908 69.9512 95.5908C68.6263 95.5908 67.4268 95.3581 66.3525 94.8926C65.2783 94.3913 64.3652 93.7109 63.6133 92.8516C62.8613 91.9564 62.2705 90.918 61.8408 89.7363C61.4469 88.5547 61.25 87.2656 61.25 85.8691C61.25 83.0762 61.7155 80.6234 62.6465 78.5107C63.6133 76.3623 64.8307 74.5719 66.2988 73.1396C67.7669 71.7074 69.3783 70.6331 71.1328 69.917C72.9232 69.2008 74.6419 68.8428 76.2891 68.8428C77.3991 68.8428 78.4196 69.0039 79.3506 69.3262C80.2816 69.6126 81.0693 69.9349 81.7139 70.293C82.3942 70.651 82.9134 70.9912 83.2715 71.3135C83.6296 71.5999 83.8265 71.7611 83.8623 71.7969C84.2562 72.2624 84.4531 72.7458 84.4531 73.2471C84.4531 73.7842 84.2562 74.2676 83.8623 74.6973C83.4684 75.0911 83.0029 75.2881 82.4658 75.2881C81.8929 75.2881 81.4095 75.0911 81.0156 74.6973C80.944 74.6257 80.7829 74.5003 80.5322 74.3213C80.2816 74.1064 79.9414 73.8916 79.5117 73.6768C79.082 73.4619 78.5628 73.2829 77.9541 73.1396C77.3812 72.9606 76.7188 72.8711 75.9668 72.8711C74.8568 72.8711 73.6751 73.1217 72.4219 73.623C71.1686 74.1243 70.0228 74.9121 68.9844 75.9863C67.946 77.0247 67.0687 78.3496 66.3525 79.9609C65.6722 81.5365 65.332 83.4163 65.332 85.6006C65.332 86.2809 65.4036 86.9792 65.5469 87.6953C65.6901 88.3757 65.9408 89.0023 66.2988 89.5752C66.6569 90.1481 67.1403 90.6136 67.749 90.9717C68.3577 91.3298 69.1097 91.5088 70.0049 91.5088C70.6494 91.5088 71.3835 91.2939 72.207 90.8643C73.0664 90.4346 73.8721 89.7721 74.624 88.877C75.4118 87.9818 76.11 86.8538 76.7188 85.4932C77.3633 84.1325 77.8109 82.5212 78.0615 80.6592C78.1331 80.1579 78.3659 79.7461 78.7598 79.4238C79.1536 79.0658 79.6191 78.8867 80.1562 78.8867C80.6576 78.8867 81.0872 79.0837 81.4453 79.4775C81.8392 79.8714 82.054 80.319 82.0898 80.8203C82.1257 81.5007 82.1973 82.4674 82.3047 83.7207C82.4121 84.9382 82.6449 86.1556 83.0029 87.373C83.3968 88.5905 83.9697 89.6468 84.7217 90.542C85.4736 91.4372 86.512 91.8848 87.8369 91.8848C88.6963 91.8848 89.5378 91.652 90.3613 91.1865C91.2207 90.721 92.0443 90.1123 92.832 89.3604C93.6556 88.5726 94.4255 87.6953 95.1416 86.7285C95.8936 85.7259 96.5739 84.7233 97.1826 83.7207C97.7913 82.7181 98.3285 81.7513 98.7939 80.8203C99.2594 79.8893 99.6533 79.0837 99.9756 78.4033C100.155 78.0094 100.405 77.7051 100.728 77.4902C101.086 77.2754 101.462 77.168 101.855 77.168C102.464 77.168 102.948 77.4007 103.306 77.8662C103.7 78.2959 103.896 78.7614 103.896 79.2627C103.896 79.5133 103.843 79.764 103.735 80.0146Z" fill="#284B63"/>
<path d="M42.8809 79.3701L41.9574 78.9865L41.8381 79.2736L41.9026 79.5776L42.8809 79.3701ZM54.2139 90.3809L54.8327 91.1664L54.84 91.1607L54.8471 91.1548L54.2139 90.3809ZM57.4902 86.8896L56.6878 86.2929L56.6852 86.2964L57.4902 86.8896ZM62.1631 78.457L63.0792 78.8578L63.0828 78.8498L63.0862 78.8416L62.1631 78.457ZM65.9229 79.9609L65.0284 79.5137L65.0121 79.5464L64.9982 79.5802L65.9229 79.9609ZM64.7949 82.4316L63.8944 81.9969L63.8911 82.0037L63.8879 82.0105L64.7949 82.4316ZM63.0225 85.708L62.1672 85.1897L62.1626 85.1975L63.0225 85.708ZM60.7129 89.2529L59.8959 88.6762L60.7129 89.2529ZM54.5361 94.9463L55.0053 95.8295L55.015 95.8242L54.5361 94.9463ZM44.707 93.3887L44.0074 94.1032L44.0151 94.1107L44.707 93.3887ZM40.249 85.1172L41.1995 84.8063L40.4165 82.4127L39.3442 84.6914L40.249 85.1172ZM35.0391 93.0664L34.3546 92.3373L35.0391 93.0664ZM26.2305 95L26.5668 94.0583L26.5517 94.0529L26.5365 94.048L26.2305 95ZM21.7725 90.3271L20.835 90.6754L20.8384 90.6843L21.7725 90.3271ZM25.6934 73.623L26.4268 74.3029L26.4349 74.294L25.6934 73.623ZM30.2051 70.1318L29.7655 69.2336L29.7579 69.2374L30.2051 70.1318ZM36.5967 69.4873L35.8896 70.1944L35.9064 70.2112L35.924 70.2272L36.5967 69.4873ZM35.415 72.9248L35.2829 71.9336L35.415 72.9248ZM28.5938 76.3086L27.8866 75.6015L28.5938 76.3086ZM26.0693 80.1758L25.1513 79.7793L25.1474 79.7882L25.1438 79.7971L26.0693 80.1758ZM26.1768 90.0049L25.363 90.5861L25.3698 90.5956L25.3768 90.6049L26.1768 90.0049ZM31.2256 91.0791L31.6317 91.9929L31.6525 91.9837L31.6728 91.9735L31.2256 91.0791ZM33.2666 89.2529L32.5009 88.6097L32.4932 88.6189L32.4857 88.6282L33.2666 89.2529ZM35.6836 85.4395L34.805 84.9619L34.8009 84.9694L34.797 84.9769L35.6836 85.4395ZM38.6377 78.9404L39.5662 79.3118L39.6753 79.0391L39.6195 78.7508L38.6377 78.9404ZM36.4355 47.3047L37.4338 47.3643L37.4338 47.3634L36.4355 47.3047ZM37.1338 40.2148L38.124 40.3541L38.1243 40.352L37.1338 40.2148ZM40.3564 28.1299L39.462 27.6827L39.4579 27.6909L39.454 27.6992L40.3564 28.1299ZM43.0957 24.4238L43.7486 25.1812L43.756 25.1749L43.7632 25.1684L43.0957 24.4238ZM51.6357 26.6797L50.7196 27.0805L50.7248 27.0924L50.7303 27.1041L51.6357 26.6797ZM49.4336 60.5176L48.4714 60.2452L48.469 60.2537L49.4336 60.5176ZM49.0576 33.1787L48.0582 33.2132L48.0588 33.2304L48.06 33.2475L49.0576 33.1787ZM48.6816 30.2783L47.6996 30.4672L47.7039 30.4895L47.7093 30.5117L48.6816 30.2783ZM44.1162 29.4189L43.2218 28.9717L43.2177 28.9799L43.2137 28.9882L44.1162 29.4189ZM42.1289 35.6494L43.1044 35.8693L43.1051 35.8663L42.1289 35.6494ZM40.7324 44.3506L39.7384 44.2413L39.7374 44.2511L40.7324 44.3506ZM41.4844 72.0117L40.4928 72.1411L42.4202 72.3642L41.4844 72.0117ZM44.4385 63.5254L45.3906 63.831L45.3917 63.8276L44.4385 63.5254ZM46.8555 54.5557L45.882 54.3266L45.8796 54.3375L46.8555 54.5557ZM48.5205 45.3711L47.5298 45.2344L47.5286 45.2442L48.5205 45.3711ZM41.9026 79.5776C42.7887 83.7551 43.892 86.9874 45.2516 89.1992C46.6141 91.4157 48.3518 92.7773 50.5078 92.7773V90.7773C49.3337 90.7773 48.1352 90.0711 46.9554 88.1518C45.7728 86.2279 44.7275 83.2567 43.8591 79.1626L41.9026 79.5776ZM50.5078 92.7773C52.0576 92.7773 53.5055 92.2121 54.8327 91.1664L53.595 89.5954C52.559 90.4116 51.5361 90.7773 50.5078 90.7773V92.7773ZM54.8471 91.1548C56.0998 90.1299 57.2484 88.9036 58.2953 87.4828L56.6852 86.2964C55.7269 87.597 54.6912 88.6982 53.5806 89.6069L54.8471 91.1548ZM58.2927 87.4864C59.364 86.0456 60.3065 84.5303 61.1197 82.9408L59.3392 82.0299C58.5769 83.5199 57.6933 84.9407 56.6878 86.2929L58.2927 87.4864ZM61.1197 82.9408C61.9135 81.3894 62.5675 80.0276 63.0792 78.8578L61.2469 78.0562C60.7561 79.1781 60.121 80.5019 59.3392 82.0299L61.1197 82.9408ZM63.0862 78.8416C63.2078 78.5497 63.3456 78.3983 63.4671 78.315C63.586 78.2335 63.7604 78.168 64.043 78.168V76.168C63.4303 76.168 62.8439 76.3173 62.3361 76.6655C61.831 77.0118 61.4765 77.5049 61.24 78.0724L63.0862 78.8416ZM64.043 78.168C64.3301 78.168 64.5478 78.2611 64.756 78.4882L66.2303 77.1368C65.6508 76.5046 64.9017 76.168 64.043 76.168V78.168ZM64.756 78.4882C65.0102 78.7655 65.084 78.9982 65.084 79.209H67.084C67.084 78.4172 66.7639 77.7189 66.2303 77.1368L64.756 78.4882ZM65.084 79.209C65.084 79.3698 65.0543 79.462 65.0284 79.5137L66.8173 80.4081C67.0063 80.0302 67.084 79.621 67.084 79.209H65.084ZM64.9982 79.5802C64.7586 80.1621 64.3924 80.9652 63.8944 81.9969L65.6955 82.8664C66.2 81.8213 66.5858 80.9772 66.8475 80.3417L64.9982 79.5802ZM63.8879 82.0105C63.4411 82.9728 62.8688 84.0321 62.1673 85.1897L63.8777 86.2263C64.6084 85.0206 65.2177 83.8957 65.7019 82.8528L63.8879 82.0105ZM62.1626 85.1975C61.4971 86.3182 60.7419 87.4778 59.8959 88.6762L61.5299 89.8296C62.4026 88.5932 63.1871 87.3894 63.8823 86.2185L62.1626 85.1975ZM59.8959 88.6762C59.0743 89.8402 58.1703 90.8798 57.1848 91.7974L58.5476 93.2612C59.6389 92.2452 60.6328 91.1005 61.5299 89.8296L59.8959 88.6762ZM57.1848 91.7974C56.2042 92.7103 55.1617 93.466 54.0573 94.0684L55.015 95.8242C56.2738 95.1375 57.4514 94.2819 58.5476 93.2612L57.1848 91.7974ZM54.067 94.0632C53.0646 94.5957 52.0081 94.8594 50.8838 94.8594V96.8594C52.3376 96.8594 53.716 96.5144 55.0053 95.8294L54.067 94.0632ZM50.8838 94.8594C48.7403 94.8594 46.9299 94.1339 45.3989 92.6667L44.0151 94.1107C45.9217 95.9378 48.2291 96.8594 50.8838 96.8594V94.8594ZM45.4067 92.6742C43.8556 91.1554 42.4324 88.5755 41.1995 84.8063L39.2986 85.4281C40.5722 89.3216 42.121 92.2561 44.0074 94.1032L45.4067 92.6742ZM39.3442 84.6914C37.6477 88.2964 35.9756 90.8156 34.3546 92.3373L35.7235 93.7955C37.6117 92.0229 39.4128 89.2427 41.1538 85.543L39.3442 84.6914ZM34.3546 92.3373C32.7501 93.8436 31.0877 94.5371 29.3457 94.5371V96.5371C31.6857 96.5371 33.8189 95.5834 35.7235 93.7955L34.3546 92.3373ZM29.3457 94.5371C28.3851 94.5371 27.4605 94.3774 26.5668 94.0583L25.8941 95.9417C27.0057 96.3387 28.1579 96.5371 29.3457 96.5371V94.5371ZM26.5365 94.048C25.6982 93.7785 24.9629 93.3159 24.322 92.6445L22.8753 94.0254C23.7383 94.9295 24.7576 95.577 25.9245 95.952L26.5365 94.048ZM24.322 92.6445C23.6779 91.9697 23.1337 91.0874 22.7065 89.97L20.8384 90.6843C21.3422 92.0018 22.0155 93.1247 22.8753 94.0254L24.322 92.6445ZM22.7099 89.979C22.2972 88.8678 22.0742 87.4711 22.0742 85.7617H20.0742C20.0742 87.6331 20.3168 89.28 20.835 90.6753L22.7099 89.979ZM22.0742 85.7617C22.0742 83.4091 22.4829 81.2668 23.2873 79.3228L21.4393 78.5581C20.525 80.7677 20.0742 83.1729 20.0742 85.7617H22.0742ZM23.2873 79.3228C24.1068 77.3422 25.1561 75.6739 26.4268 74.3028L24.9599 72.9433C23.5093 74.5084 22.3385 76.385 21.4393 78.5581L23.2873 79.3228ZM26.4349 74.294C27.7207 72.8729 29.127 71.7889 30.6523 71.0263L29.7579 69.2374C27.9889 70.1219 26.3874 71.3654 24.9518 72.9521L26.4349 74.294ZM30.6446 71.0301C32.2096 70.2642 33.7251 69.8965 35.2002 69.8965V67.8965C33.381 67.8965 31.5664 68.3523 29.7655 69.2336L30.6446 71.0301ZM35.2002 69.8965C35.4613 69.8965 35.6755 69.9803 35.8896 70.1944L37.3038 68.7802C36.7301 68.2065 36.0133 67.8965 35.2002 67.8965V69.8965ZM35.924 70.2272C36.0922 70.3802 36.1875 70.5685 36.1875 70.8838H38.1875C38.1875 70.0533 37.8889 69.3106 37.2694 68.7474L35.924 70.2272ZM36.1875 70.8838C36.1875 71.1505 36.1087 71.3751 35.9301 71.5933L37.4781 72.8598C37.9441 72.2902 38.1875 71.6197 38.1875 70.8838H36.1875ZM35.9301 71.5933C35.7797 71.7772 35.5862 71.8931 35.2829 71.9336L35.5472 73.916C36.318 73.8133 36.984 73.4637 37.4781 72.8598L35.9301 71.5933ZM35.2829 71.9336C34.0966 72.0918 32.8589 72.4635 31.5739 73.0304L32.3812 74.8602C33.5311 74.3529 34.5851 74.0443 35.5472 73.916L35.2829 71.9336ZM31.5739 73.0304C30.2322 73.6223 29.0034 74.4847 27.8866 75.6015L29.3009 77.0157C30.2609 76.0557 31.288 75.3425 32.3812 74.8602L31.5739 73.0304ZM27.8866 75.6015C26.7781 76.71 25.8714 78.1116 25.1513 79.7793L26.9874 80.5722C27.6279 79.0889 28.4042 77.9124 29.3009 77.0157L27.8866 75.6015ZM25.1438 79.7971C24.4383 81.5216 24.1025 83.5365 24.1025 85.8154H26.1025C26.1025 83.7259 26.4113 81.981 26.9949 80.5544L25.1438 79.7971ZM24.1025 85.8154C24.1025 87.7239 24.4821 89.3528 25.363 90.5861L26.9905 89.4236C26.4391 88.6517 26.1025 87.4877 26.1025 85.8154H24.1025ZM25.3768 90.6049C26.3411 91.8906 27.7295 92.5088 29.3994 92.5088V90.5088C28.2763 90.5088 27.5163 90.1243 26.9768 89.4049L25.3768 90.6049ZM29.3994 92.5088C30.1407 92.5088 30.8881 92.3234 31.6317 91.9929L30.8194 90.1653C30.274 90.4077 29.804 90.5088 29.3994 90.5088V92.5088ZM31.6728 91.9735C32.5009 91.5595 33.2885 90.8264 34.0475 89.8776L32.4857 88.6282C31.8125 89.4698 31.2394 89.9542 30.7784 90.1847L31.6728 91.9735ZM34.0323 89.8961C34.85 88.9227 35.6944 87.5806 36.5702 85.902L34.797 84.9769C33.9541 86.5925 33.1871 87.7928 32.5009 88.6097L34.0323 89.8961ZM36.5622 85.917C37.4832 84.2223 38.4843 82.0165 39.5662 79.3118L37.7092 78.569C36.6426 81.2355 35.6743 83.3623 34.805 84.9619L36.5622 85.917ZM39.6195 78.7508C39.0163 75.628 38.4646 72.0173 37.9653 67.9163L35.98 68.158C36.4833 72.2926 37.0417 75.9508 37.6558 79.1301L39.6195 78.7508ZM37.9653 67.9163C37.4698 63.8463 37.2207 59.2863 37.2207 54.2334H35.2207C35.2207 59.3498 35.4729 63.9923 35.98 68.158L37.9653 67.9163ZM37.2207 54.2334C37.2207 52.0348 37.2916 49.7451 37.4338 47.3643L35.4373 47.2451C35.293 49.6624 35.2207 51.9919 35.2207 54.2334H37.2207ZM37.4338 47.3634C37.5756 44.954 37.8057 42.6177 38.124 40.3541L36.1435 40.0756C35.8173 42.3954 35.582 44.7856 35.4373 47.246L37.4338 47.3634ZM38.1243 40.352C38.4418 38.0591 38.8644 35.895 39.391 33.8588L37.4547 33.358C36.9071 35.4754 36.4703 37.7156 36.1432 40.0777L38.1243 40.352ZM39.391 33.8588C39.9155 31.8305 40.54 30.0669 41.2589 28.5606L39.454 27.6992C38.669 29.3439 38.0044 31.2326 37.4547 33.358L39.391 33.8588ZM41.2509 28.5771C41.9956 27.0877 42.8346 25.9692 43.7486 25.1812L42.4428 23.6664C41.28 24.6688 40.2928 26.0211 39.462 27.6827L41.2509 28.5771ZM43.7632 25.1684C44.6288 24.3924 45.576 24.0273 46.6406 24.0273V22.0273C45.0555 22.0273 43.6395 22.5933 42.4282 23.6793L43.7632 25.1684ZM46.6406 24.0273C47.6294 24.0273 48.4071 24.2925 49.0321 24.7816L50.2647 23.2066C49.2426 22.4067 48.0151 22.0273 46.6406 22.0273V24.0273ZM49.0321 24.7816C49.702 25.3059 50.2717 26.0568 50.7196 27.0805L52.5519 26.2789C51.9972 25.0109 51.242 23.9715 50.2647 23.2066L49.0321 24.7816ZM50.7303 27.1041C51.2175 28.1435 51.5892 29.426 51.8293 30.9691L53.8055 30.6617C53.5442 28.9822 53.1282 27.5076 52.5412 26.2553L50.7303 27.1041ZM51.8293 30.9691C52.0707 32.5213 52.1934 34.2415 52.1934 36.1328H54.1934C54.1934 34.1569 54.0654 32.3322 53.8055 30.6617L51.8293 30.9691ZM52.1934 36.1328C52.1934 40.2287 51.8403 44.3255 51.1337 48.4238L53.1046 48.7637C53.8303 44.5547 54.1934 40.3442 54.1934 36.1328H52.1934ZM51.1337 48.4238C50.4231 52.5453 49.5354 56.4856 48.4714 60.2453L50.3958 60.7899C51.4802 56.9584 52.3829 52.9495 53.1046 48.7637L51.1337 48.4238ZM48.469 60.2537C47.437 64.026 46.3353 67.5079 45.1646 70.7007L47.0424 71.3892C48.235 68.1366 49.3534 64.6003 50.3981 60.7815L48.469 60.2537ZM45.1646 70.7007C43.9862 73.9145 42.9172 76.6757 41.9574 78.9865L43.8044 79.7537C44.7781 77.4096 45.8575 74.6207 47.0424 71.3892L45.1646 70.7007ZM50.165 36.0791C50.165 35.1576 50.1282 34.1676 50.0552 33.1099L48.06 33.2475C48.1303 34.2666 48.165 35.2102 48.165 36.0791H50.165ZM50.057 33.1442C50.0192 32.0472 49.8864 31.0131 49.654 30.0449L47.7093 30.5117C47.9066 31.3339 48.0244 32.2334 48.0582 33.2132L50.057 33.1442ZM49.6636 30.0895C49.4724 29.095 49.1959 28.2232 48.8135 27.5009L47.0459 28.4366C47.308 28.9317 47.5328 29.5997 47.6996 30.4672L49.6636 30.0895ZM48.8135 27.5009C48.3753 26.6733 47.6566 26.0557 46.6406 26.0557V28.0557C46.6989 28.0557 46.8395 28.0468 47.0459 28.4366L48.8135 27.5009ZM46.6406 26.0557C45.8726 26.0557 45.2056 26.4008 44.6547 26.9165C44.1143 27.4224 43.6436 28.128 43.2218 28.9717L45.0106 29.8662C45.3765 29.1344 45.7205 28.6583 46.0216 28.3765C46.3122 28.1044 46.5135 28.0557 46.6406 28.0557V26.0557ZM43.2137 28.9882C42.4172 30.6572 41.7346 32.8141 41.1527 35.4325L43.1051 35.8663C43.6691 33.3285 44.3114 31.3317 45.0187 29.8497L43.2137 28.9882ZM41.1534 35.4296C40.5705 38.0163 40.0996 40.9547 39.7384 44.2414L41.7264 44.4598C42.0814 41.2295 42.5415 38.3672 43.1044 35.8693L41.1534 35.4296ZM39.7374 44.2511C39.4118 47.5074 39.249 50.799 39.249 54.126H41.249C41.249 50.8644 41.4086 47.6391 41.7275 44.4501L39.7374 44.2511ZM39.249 54.126C39.249 57.3036 39.3754 60.4811 39.6281 63.6584L41.6219 63.4998C41.3733 60.3751 41.249 57.2505 41.249 54.126H39.249ZM39.6281 63.6584C39.8798 66.822 40.1679 69.65 40.4928 72.1411L42.476 71.8824C42.1564 69.432 41.8715 66.6383 41.6219 63.4998L39.6281 63.6584ZM42.4202 72.3642C43.4646 69.591 44.4548 66.7466 45.3906 63.831L43.4863 63.2198C42.5602 66.1049 41.5809 68.9181 40.5485 71.6593L42.4202 72.3642ZM45.3917 63.8276C46.3316 60.8634 47.1448 57.8454 47.8314 54.7738L45.8796 54.3375C45.2055 57.3531 44.4073 60.315 43.4852 63.2231L45.3917 63.8276ZM47.8289 54.7847C48.5529 51.7076 49.1141 48.612 49.5124 45.498L47.5286 45.2442C47.1391 48.2891 46.5903 51.3165 45.8821 54.3266L47.8289 54.7847ZM49.5111 45.5077C49.9469 42.3482 50.165 39.2052 50.165 36.0791H48.165C48.165 39.1119 47.9535 42.1635 47.5299 45.2345L49.5111 45.5077ZM103.735 80.0146L104.63 80.4619L104.643 80.4356L104.654 80.4086L103.735 80.0146ZM102.822 81.8408L101.928 81.3936L101.924 81.4008L101.921 81.4081L102.822 81.8408ZM101.104 84.9561L100.248 84.4378L100.243 84.4474L100.237 84.4571L101.104 84.9561ZM91.8652 94.8926L92.322 95.7821L92.3314 95.7773L92.3408 95.7723L91.8652 94.8926ZM82.4121 93.9258L81.7238 94.6513L81.7331 94.6599L82.4121 93.9258ZM79.3506 88.9307L80.3026 88.6247L79.6254 86.5178L78.4918 88.4184L79.3506 88.9307ZM75 93.8184L75.5747 94.6369L75.5861 94.6286L75 93.8184ZM66.3525 94.8926L65.9297 95.7988L65.9422 95.8046L65.9549 95.8101L66.3525 94.8926ZM63.6133 92.8516L62.8476 93.4948L62.8541 93.5025L62.8607 93.5101L63.6133 92.8516ZM61.8408 89.7363L60.8921 90.0526L60.8964 90.0654L60.901 90.0781L61.8408 89.7363ZM62.6465 78.5107L61.7345 78.1004L61.7314 78.1075L62.6465 78.5107ZM66.2988 73.1396L65.6005 72.4239L66.2988 73.1396ZM71.1328 69.917L70.7614 68.9885L70.7549 68.9911L71.1328 69.917ZM79.3506 69.3262L79.0235 70.2712L79.0399 70.2768L79.0565 70.282L79.3506 69.3262ZM81.7139 70.293L81.2282 71.1671L81.2381 71.1726L81.2481 71.1779L81.7139 70.293ZM83.2715 71.3135L82.6025 72.0568L82.6241 72.0762L82.6468 72.0943L83.2715 71.3135ZM83.8623 71.7969L84.6257 71.1509L84.5988 71.1192L84.5694 71.0898L83.8623 71.7969ZM83.8623 74.6973L84.5694 75.4044L84.5848 75.389L84.5995 75.373L83.8623 74.6973ZM80.5322 74.3213L79.8814 75.0805L79.915 75.1093L79.951 75.135L80.5322 74.3213ZM77.9541 73.1396L77.6558 74.0941L77.6901 74.1048L77.7251 74.1131L77.9541 73.1396ZM68.9844 75.9863L69.6915 76.6934L69.6975 76.6874L69.7034 76.6814L68.9844 75.9863ZM66.3525 79.9609L65.4387 79.5548L65.4345 79.5645L66.3525 79.9609ZM65.5469 87.6953L64.5662 87.8914L64.5683 87.9013L65.5469 87.6953ZM72.207 90.8643L71.7598 89.9698L71.7521 89.9737L71.7445 89.9777L72.207 90.8643ZM74.624 88.877L73.8733 88.2163L73.8657 88.225L73.8583 88.2338L74.624 88.877ZM76.7188 85.4932L75.815 85.0651L75.8104 85.0749L75.8059 85.0848L76.7188 85.4932ZM78.0615 80.6592L77.0715 80.5178L77.0705 80.5258L78.0615 80.6592ZM78.7598 79.4238L79.393 80.1978L79.4132 80.1813L79.4324 80.1638L78.7598 79.4238ZM81.4453 79.4775L80.7054 80.1502L80.7214 80.1678L80.7382 80.1846L81.4453 79.4775ZM82.0898 80.8203L83.0885 80.7678L83.088 80.7584L83.0873 80.7491L82.0898 80.8203ZM82.3047 83.7207L81.3083 83.8061L81.3086 83.8086L82.3047 83.7207ZM83.0029 87.373L82.0436 87.6552L82.0474 87.6681L82.0515 87.6809L83.0029 87.373ZM90.3613 91.1865L89.885 90.3072L89.8771 90.3115L89.8693 90.316L90.3613 91.1865ZM92.832 89.3604L93.5225 90.0837L93.5233 90.083L92.832 89.3604ZM95.1416 86.7285L94.3416 86.1285L94.338 86.1333L95.1416 86.7285ZM98.7939 80.8203L97.8995 80.3731L98.7939 80.8203ZM99.9756 78.4033L100.879 78.8314L100.883 78.8243L100.886 78.8171L99.9756 78.4033ZM100.728 77.4902L100.213 76.6327L100.193 76.645L100.173 76.6582L100.728 77.4902ZM103.306 77.8662L102.513 78.4759L102.539 78.5101L102.569 78.5419L103.306 77.8662ZM102.841 79.5674C102.841 79.568 102.84 79.5686 102.84 79.5691C102.84 79.5697 102.84 79.5702 102.839 79.5708C102.839 79.5714 102.838 79.5736 102.838 79.5742C102.837 79.5746 102.834 79.5806 102.834 79.5811C102.833 79.5826 102.833 79.583 102.832 79.5846C102.832 79.5853 102.831 79.5874 102.831 79.5881C102.83 79.589 102.827 79.5943 102.827 79.5952C102.822 79.6043 102.817 79.6152 102.812 79.6249C102.802 79.6443 102.791 79.6681 102.78 79.69C102.779 79.6907 102.779 79.6914 102.779 79.6921C102.778 79.6928 102.778 79.6936 102.778 79.6943C102.777 79.695 102.777 79.6957 102.776 79.6964C102.776 79.6972 102.776 79.6979 102.775 79.6986C102.774 79.7011 102.774 79.7005 102.773 79.703C102.772 79.7061 102.772 79.7043 102.771 79.7074C102.77 79.7085 102.769 79.7107 102.769 79.7118C102.768 79.7132 102.767 79.7149 102.766 79.7163C102.766 79.718 102.763 79.7236 102.762 79.7253C102.762 79.7259 102.758 79.7338 102.757 79.7345C102.757 79.7353 102.756 79.7382 102.755 79.7391C102.755 79.7398 102.754 79.7406 102.754 79.7414C102.754 79.7421 102.753 79.7429 102.753 79.7437C102.752 79.7445 102.752 79.7453 102.752 79.746C102.751 79.7468 102.751 79.7476 102.75 79.7484C102.75 79.7492 102.75 79.7499 102.749 79.7507C102.749 79.7515 102.748 79.7523 102.748 79.7531C102.748 79.7539 102.747 79.7546 102.747 79.7554C102.747 79.7562 102.746 79.757 102.746 79.7578C102.745 79.7586 102.745 79.7594 102.745 79.7602C102.744 79.761 102.744 79.7618 102.743 79.7626C102.742 79.765 102.74 79.7697 102.739 79.7722C102.738 79.7734 102.734 79.7806 102.734 79.7819C102.729 79.7919 102.729 79.7915 102.724 79.8017C102.717 79.8145 102.72 79.809 102.714 79.822C102.713 79.8228 102.713 79.8237 102.712 79.8245C102.712 79.8254 102.712 79.8262 102.711 79.8271C102.711 79.828 102.71 79.8288 102.71 79.8297C102.709 79.8305 102.709 79.8314 102.709 79.8323C102.708 79.8331 102.708 79.834 102.707 79.8349C102.707 79.8357 102.706 79.8366 102.706 79.8375C102.705 79.8383 102.705 79.8392 102.705 79.8401C102.704 79.841 102.704 79.8418 102.703 79.8427C102.703 79.8436 102.702 79.8445 102.702 79.8453C102.702 79.8462 102.701 79.8471 102.701 79.848C102.7 79.8496 102.699 79.8516 102.698 79.8533C102.696 79.8563 102.697 79.8555 102.695 79.8586C102.695 79.8596 102.693 79.8629 102.693 79.8639C102.691 79.868 102.684 79.8814 102.682 79.8856C102.671 79.908 102.671 79.9074 102.659 79.9304C102.636 79.9778 102.637 79.9758 102.612 80.0257C102.599 80.0504 102.574 80.1012 102.56 80.1285C102.529 80.1906 102.538 80.1741 102.505 80.2388C102.448 80.3528 102.324 80.6015 102.247 80.7558C102.245 80.76 102.213 80.8241 102.21 80.8289C102.209 80.8312 102.202 80.8451 102.201 80.8475C102.2 80.8486 102.192 80.865 102.192 80.8662C102.191 80.8673 102.183 80.8838 102.182 80.885C102.181 80.8866 102.181 80.8881 102.18 80.8897C102.179 80.8913 102.178 80.8929 102.177 80.8944C102.177 80.896 102.176 80.8976 102.175 80.8992C102.174 80.9007 102.173 80.9023 102.173 80.9039C102.168 80.913 102.101 81.048 102.095 81.0596C102.085 81.0794 102.024 81.2005 102.013 81.2228C101.997 81.2543 101.945 81.3596 101.928 81.3936L103.717 82.288C103.978 81.7649 104.113 81.4952 104.294 81.1332C104.393 80.9349 104.413 80.8952 104.492 80.7371C104.537 80.6482 104.605 80.5106 104.63 80.4619L102.841 79.5674ZM101.921 81.4081C101.509 82.2652 100.954 83.274 100.248 84.4378L101.959 85.4744C102.686 84.2748 103.276 83.2068 103.724 82.2736L101.921 81.4081ZM100.237 84.4571C99.5762 85.6045 98.7899 86.811 97.8758 88.0766L99.4972 89.2476C100.445 87.9351 101.27 86.6708 101.97 85.455L100.237 84.4571ZM97.8758 88.0766C96.9819 89.3144 95.9858 90.4477 94.8873 91.4775L96.2552 92.9366C97.4484 91.818 98.5292 90.588 99.4972 89.2476L97.8758 88.0766ZM94.8873 91.4775C93.8016 92.4954 92.6358 93.3393 91.3897 94.0129L92.3408 95.7723C93.7444 95.0135 95.0494 94.0671 96.2552 92.9366L94.8873 91.4775ZM91.4084 94.003C90.2228 94.6119 88.9826 94.9131 87.6758 94.9131V96.9131C89.3051 96.9131 90.858 96.534 92.322 95.7821L91.4084 94.003ZM87.6758 94.9131C85.8329 94.9131 84.326 94.3339 83.0912 93.1917L81.7331 94.6599C83.3628 96.1674 85.365 96.9131 87.6758 96.9131V94.9131ZM83.1004 93.2003C81.8368 92.0016 80.9008 90.4855 80.3026 88.6247L78.3986 89.2367C79.0895 91.3862 80.1944 93.2002 81.7239 94.6512L83.1004 93.2003ZM78.4918 88.4184C77.334 90.3593 75.9718 91.8811 74.4139 93.0081L75.5861 94.6286C77.3941 93.3207 78.9323 91.584 80.2094 89.4429L78.4918 88.4184ZM74.4254 92.9999C72.8728 94.09 71.3866 94.5908 69.9512 94.5908V96.5908C71.8817 96.5908 73.7613 95.91 75.5746 94.6368L74.4254 92.9999ZM69.9512 94.5908C68.7451 94.5908 67.6834 94.3794 66.7501 93.975L65.9549 95.8101C67.1702 96.3367 68.5075 96.5908 69.9512 96.5908V94.5908ZM66.7754 93.9864C65.8222 93.5416 65.0228 92.9439 64.3659 92.1931L62.8607 93.5101C63.7077 94.478 64.7344 95.241 65.9297 95.7988L66.7754 93.9864ZM64.379 92.2084C63.7077 91.4093 63.1734 90.4747 62.7806 89.3946L60.901 90.0781C61.3676 91.3613 62.0149 92.5035 62.8476 93.4948L64.379 92.2084ZM62.7895 89.4201C62.4335 88.352 62.25 87.171 62.25 85.8691H60.25C60.25 87.3602 60.4604 88.7574 60.8921 90.0526L62.7895 89.4201ZM62.25 85.8691C62.25 83.1865 62.697 80.8758 63.5616 78.914L61.7314 78.1075C60.734 80.3709 60.25 82.9658 60.25 85.8691H62.25ZM63.5584 78.9211C64.4813 76.8702 65.6311 75.1882 66.9972 73.8554L65.6005 72.4239C64.0304 73.9557 62.7452 75.8545 61.7346 78.1004L63.5584 78.9211ZM66.9972 73.8554C68.3806 72.5057 69.885 71.5064 71.5107 70.8428L70.7549 68.9911C68.8715 69.7599 67.1532 70.909 65.6005 72.4239L66.9972 73.8554ZM71.5042 70.8455C73.1963 70.1686 74.7889 69.8428 76.2891 69.8428V67.8428C74.495 67.8428 72.6501 68.2331 70.7614 68.9885L71.5042 70.8455ZM76.2891 69.8428C77.3017 69.8428 78.2101 69.9896 79.0235 70.2712L79.6777 68.3812C78.6291 68.0182 77.4965 67.8428 76.2891 67.8428V69.8428ZM79.0565 70.282C79.9408 70.554 80.6603 70.8516 81.2282 71.1671L82.1995 69.4188C81.4783 69.0182 80.6223 68.6712 79.6447 68.3704L79.0565 70.282ZM81.2481 71.1779C81.8931 71.5173 82.3314 71.8127 82.6025 72.0568L83.9404 70.5702C83.4954 70.1697 82.8953 69.7847 82.1796 69.4081L81.2481 71.1779ZM82.6468 72.0943C82.8248 72.2368 82.9603 72.346 83.0545 72.4231C83.1019 72.4619 83.1362 72.4904 83.1593 72.5099C83.1938 72.5391 83.1806 72.5294 83.1552 72.504L84.5694 71.0898C84.5071 71.0274 84.3993 70.9393 84.321 70.8752C84.2183 70.7912 84.0762 70.6766 83.8962 70.5326L82.6468 72.0943ZM83.0989 72.4428C83.3744 72.7684 83.4531 73.0306 83.4531 73.2471H85.4531C85.4531 72.461 85.138 71.7564 84.6257 71.1509L83.0989 72.4428ZM83.4531 73.2471C83.4531 73.5117 83.3657 73.7592 83.1251 74.0215L84.5995 75.373C85.1467 74.776 85.4531 74.0567 85.4531 73.2471H83.4531ZM83.1552 73.9902C82.9411 74.2043 82.7269 74.2881 82.4658 74.2881V76.2881C83.2789 76.2881 83.9958 75.978 84.5694 75.4044L83.1552 73.9902ZM82.4658 74.2881C82.1497 74.2881 81.9232 74.1906 81.7227 73.9902L80.3085 75.4044C80.8958 75.9917 81.6362 76.2881 82.4658 76.2881V74.2881ZM81.7227 73.9902C81.5826 73.8501 81.352 73.6779 81.1135 73.5076L79.951 75.135C80.0702 75.2202 80.1612 75.2876 80.2271 75.3389C80.3008 75.3962 80.3185 75.4144 80.3085 75.4044L81.7227 73.9902ZM81.183 73.562C80.8492 73.2759 80.4318 73.0188 79.9589 72.7823L79.0645 74.5712C79.451 74.7644 79.714 74.937 79.8814 75.0805L81.183 73.562ZM79.9589 72.7823C79.4427 72.5242 78.8461 72.3222 78.1831 72.1662L77.7251 74.1131C78.2796 74.2435 78.7214 74.3996 79.0645 74.5712L79.9589 72.7823ZM78.2524 72.1852C77.5621 71.9695 76.7955 71.8711 75.9668 71.8711V73.8711C76.642 73.8711 77.2003 73.9518 77.6558 74.0941L78.2524 72.1852ZM75.9668 71.8711C74.7053 71.8711 73.397 72.1559 72.0505 72.6946L72.7933 74.5515C73.9532 74.0875 75.0082 73.8711 75.9668 73.8711V71.8711ZM72.0505 72.6946C70.6528 73.2537 69.3913 74.1265 68.2654 75.2913L69.7034 76.6814C70.6542 75.6977 71.6845 74.995 72.7933 74.5515L72.0505 72.6946ZM68.2773 75.2792C67.1366 76.4199 66.195 77.8533 65.4387 79.5548L67.2663 80.3671C67.9424 78.846 68.7554 77.6296 69.6915 76.6934L68.2773 75.2792ZM65.4345 79.5645C64.6875 81.2943 64.332 83.3158 64.332 85.6006H66.332C66.332 83.5169 66.6569 81.7786 67.2706 80.3574L65.4345 79.5645ZM64.332 85.6006C64.332 86.3514 64.4111 87.1154 64.5663 87.8914L66.5275 87.4992C66.3962 86.8429 66.332 86.2105 66.332 85.6006H64.332ZM64.5683 87.9013C64.735 88.6931 65.0288 89.4299 65.4508 90.1052L67.1468 89.0452C66.8528 88.5747 66.6452 88.0582 66.5254 87.4893L64.5683 87.9013ZM65.4508 90.1052C65.8981 90.8208 66.5011 91.3978 67.242 91.8336L68.256 90.1097C67.7795 89.8294 67.4157 89.4754 67.1468 89.0452L65.4508 90.1052ZM67.242 91.8336C68.0404 92.3033 68.9784 92.5088 70.0049 92.5088V90.5088C69.241 90.5088 68.6751 90.3562 68.256 90.1097L67.242 91.8336ZM70.0049 92.5088C70.8658 92.5088 71.762 92.2244 72.6696 91.7508L71.7445 89.9777C71.005 90.3635 70.4331 90.5088 70.0049 90.5088V92.5088ZM72.6542 91.7587C73.6593 91.2562 74.5685 90.4978 75.3897 89.5201L73.8583 88.2338C73.1756 89.0465 72.4735 89.613 71.7598 89.9698L72.6542 91.7587ZM75.3747 89.5376C76.2431 88.5508 76.9916 87.3321 77.6316 85.9015L75.8059 85.0848C75.2285 86.3756 74.5805 87.4127 73.8733 88.2163L75.3747 89.5376ZM77.6225 85.9212C78.3205 84.4477 78.7914 82.7325 79.0526 80.7926L77.0705 80.5258C76.8303 82.3098 76.4061 83.8173 75.815 85.0651L77.6225 85.9212ZM79.0515 80.8006C79.0874 80.5488 79.192 80.3622 79.393 80.1978L78.1265 78.6499C77.5398 79.13 77.1788 79.767 77.0716 80.5178L79.0515 80.8006ZM79.4324 80.1638C79.6404 79.9747 79.8654 79.8867 80.1562 79.8867V77.8867C79.3729 77.8867 78.6669 78.1568 78.0871 78.6839L79.4324 80.1638ZM80.1562 79.8867C80.3567 79.8867 80.5236 79.9503 80.7054 80.1502L82.1853 78.8049C81.6509 78.217 80.9584 77.8867 80.1562 77.8867V79.8867ZM80.7382 80.1846C80.9817 80.4282 81.0756 80.6567 81.0924 80.8916L83.0873 80.7491C83.0325 79.9813 82.6966 79.3147 82.1524 78.7704L80.7382 80.1846ZM81.0912 80.8729C81.1279 81.5697 81.2006 82.5494 81.3083 83.8061L83.301 83.6353C83.1939 82.3855 83.1234 81.4316 83.0885 80.7678L81.0912 80.8729ZM81.3086 83.8086C81.422 85.0943 81.6676 86.3768 82.0436 87.6552L83.9623 87.0909C83.6222 85.9344 83.4022 84.782 83.3008 83.6328L81.3086 83.8086ZM82.0515 87.6809C82.4813 89.0094 83.1135 90.1823 83.956 91.1852L85.4874 89.8988C84.8259 89.1113 84.3123 88.1716 83.9544 87.0652L82.0515 87.6809ZM83.956 91.1852C84.9246 92.3383 86.2608 92.8848 87.8369 92.8848V90.8848C86.7633 90.8848 86.0227 90.536 85.4874 89.8988L83.956 91.1852ZM87.8369 92.8848C88.8857 92.8848 89.8952 92.5987 90.8534 92.0571L89.8693 90.316C89.1803 90.7054 88.5069 90.8848 87.8369 90.8848V92.8848ZM90.8376 92.0658C91.7833 91.5536 92.6778 90.89 93.5225 90.0837L92.1416 88.637C91.4107 89.3346 90.6581 89.8885 89.885 90.3072L90.8376 92.0658ZM93.5233 90.083C94.39 89.2539 95.1971 88.3336 95.9452 87.3237L94.338 86.1333C93.6538 87.057 92.9212 87.8913 92.1408 88.6377L93.5233 90.083ZM95.9416 87.3285C96.7118 86.3016 97.4106 85.272 98.0374 84.2397L96.3278 83.2017C95.7371 84.1746 95.0753 85.1502 94.3416 86.1285L95.9416 87.3285ZM98.0374 84.2397C98.6586 83.2166 99.2092 82.2258 99.6884 81.2675L97.8995 80.3731C97.4477 81.2768 96.9241 82.2196 96.3278 83.2017L98.0374 84.2397ZM99.6884 81.2675C100.156 80.3324 100.553 79.5201 100.879 78.8314L99.0718 77.9752C98.7535 78.6473 98.3629 79.4463 97.8995 80.3731L99.6884 81.2675ZM100.886 78.8171C100.997 78.5726 101.133 78.4218 101.282 78.3223L100.173 76.6582C99.6776 76.9883 99.3122 77.4462 99.0652 77.9895L100.886 78.8171ZM101.242 78.3477C101.454 78.2203 101.654 78.168 101.855 78.168V76.168C101.269 76.168 100.717 76.3305 100.213 76.6327L101.242 78.3477ZM101.855 78.168C102.167 78.168 102.352 78.2668 102.513 78.4759L104.098 77.2565C103.543 76.5346 102.761 76.168 101.855 76.168V78.168ZM102.569 78.5419C102.823 78.8192 102.896 79.0519 102.896 79.2627H104.896C104.896 78.4709 104.576 77.7726 104.043 77.1905L102.569 78.5419ZM102.896 79.2627C102.896 79.3664 102.875 79.4835 102.816 79.6207L104.654 80.4086C104.811 80.0445 104.896 79.6603 104.896 79.2627H102.896Z" fill="#284B63" mask="url(#path-3-outside-1_14_6)"/>
</svg>
